<svg width="30" height="30" viewBox="0 0 30 30" fill="none" xmlns="http://www.w3.org/2000/svg">
<path d="M15 22.5L20 17.5L18.25 15.75L16.25 17.75V12.5H13.75V17.75L11.75 15.75L10 17.5L15 22.5ZM6.25 10V23.75H23.75V10H6.25ZM6.25 26.25C5.5625 26.25 4.96875 26.0104 4.46875 25.5313C3.98958 25.0313 3.75 24.4375 3.75 23.75V8.15625C3.75 7.86458 3.79167 7.58333 3.875 7.3125C3.97917 7.04167 4.125 6.79167 4.3125 6.5625L5.875 4.65625C6.10417 4.36458 6.38542 4.14583 6.71875 4C7.07292 3.83333 7.4375 3.75 7.8125 3.75H22.1875C22.5625 3.75 22.9167 3.83333 23.25 4C23.6042 4.14583 23.8958 4.36458 24.125 4.65625L25.6875 6.5625C25.875 6.79167 26.0104 7.04167 26.0938 7.3125C26.1979 7.58333 26.25 7.86458 26.25 8.15625V23.75C26.25 24.4375 26 25.0313 25.5 25.5313C25.0208 26.0104 24.4375 26.25 23.75 26.25H6.25ZM6.75 7.5H23.25L22.1875 6.25H7.8125L6.75 7.5Z" fill="#1D1B20"/>
</svg>
